<svg width="24" height="23" viewBox="0 0 24 23" fill="none" xmlns="http://www.w3.org/2000/svg">
<path d="M8.48401 19.9374C9.26066 19.9374 9.89026 19.3078 9.89026 18.5311C9.89026 17.7545 9.26066 17.1249 8.48401 17.1249C7.70736 17.1249 7.07776 17.7545 7.07776 18.5311C7.07776 19.3078 7.70736 19.9374 8.48401 19.9374Z" fill="white"/>
<path d="M18.3278 19.9374C19.1045 19.9374 19.7341 19.3078 19.7341 18.5311C19.7341 17.7545 19.1045 17.1249 18.3278 17.1249C17.5512 17.1249 16.9216 17.7545 16.9216 18.5311C16.9216 19.3078 17.5512 19.9374 18.3278 19.9374Z" fill="white"/>
<path d="M20.8239 5.55796C20.7251 5.43713 20.6006 5.33981 20.4596 5.27308C20.3185 5.20634 20.1643 5.17185 20.0083 5.17212H6.6335L6.36412 3.6437C6.33539 3.4809 6.25022 3.33342 6.12356 3.22717C5.9969 3.12093 5.83686 3.06271 5.67154 3.06274H2.85904C2.67256 3.06274 2.49372 3.13682 2.36185 3.26868C2.22999 3.40055 2.15591 3.57939 2.15591 3.76587C2.15591 3.95235 2.22999 4.13119 2.36185 4.26305C2.49372 4.39491 2.67256 4.46899 2.85904 4.46899H5.08179L7.08833 15.8412C7.11706 16.004 7.20223 16.1514 7.32889 16.2577C7.45555 16.3639 7.61559 16.4221 7.78091 16.4221H19.0309C19.2174 16.4221 19.3962 16.348 19.5281 16.2162C19.66 16.0843 19.734 15.9055 19.734 15.719C19.734 15.5325 19.66 15.3537 19.5281 15.2218C19.3962 15.0899 19.2174 15.0159 19.0309 15.0159H8.37066L8.12281 13.6096H18.7426C18.9865 13.6093 19.2227 13.5248 19.4114 13.3703C19.6001 13.2158 19.7296 13.0009 19.778 12.7619L21.0436 6.43379C21.0741 6.28064 21.0702 6.12263 21.0322 5.97117C20.9942 5.81971 20.9231 5.67857 20.8239 5.55796V5.55796Z" fill="white"/>
</svg>
