<svg width="13" height="13" viewBox="0 0 13 13" fill="none" xmlns="http://www.w3.org/2000/svg">
<path d="M12.1296 11.0959L9.37304 8.33935C10.0367 7.45586 10.395 6.38047 10.3937 5.27549C10.3937 2.45303 8.09746 0.156738 5.275 0.156738C2.45254 0.156738 0.15625 2.45303 0.15625 5.27549C0.15625 8.09795 2.45254 10.3942 5.275 10.3942C6.37998 10.3954 7.45537 10.0372 8.33886 9.37353L11.0954 12.1301C11.2349 12.2548 11.4169 12.3214 11.604 12.3162C11.7911 12.3109 11.9691 12.2343 12.1014 12.1019C12.2338 11.9696 12.3104 11.7916 12.3157 11.6045C12.3209 11.4174 12.2543 11.2354 12.1296 11.0959ZM1.61875 5.27549C1.61875 4.55235 1.83318 3.84545 2.23494 3.24418C2.63669 2.64292 3.20772 2.17429 3.87581 1.89755C4.5439 1.62082 5.27905 1.54841 5.9883 1.68949C6.69754 1.83057 7.34902 2.17879 7.86036 2.69013C8.37169 3.20146 8.71992 3.85294 8.86099 4.56219C9.00207 5.27143 8.92966 6.00658 8.65293 6.67467C8.3762 7.34276 7.90757 7.91379 7.3063 8.31555C6.70503 8.7173 5.99814 8.93173 5.275 8.93173C4.30566 8.93057 3.37635 8.54499 2.69092 7.85956C2.0055 7.17413 1.61991 6.24483 1.61875 5.27549Z" fill="#2D3748"/>
</svg>
