<svg width="13" height="13" viewBox="0 0 13 13" fill="none" xmlns="http://www.w3.org/2000/svg">
<path d="M6.49954 4.625C6.1287 4.625 5.76619 4.73497 5.45785 4.94099C5.14951 5.14702 4.90918 5.43986 4.76727 5.78247C4.62535 6.12508 4.58822 6.50208 4.66057 6.86579C4.73292 7.22951 4.91149 7.5636 5.17372 7.82582C5.43594 8.08805 5.77003 8.26662 6.13375 8.33897C6.49746 8.41132 6.87446 8.37419 7.21707 8.23227C7.55969 8.09036 7.85252 7.85003 8.05855 7.54169C8.26458 7.23335 8.37454 6.87084 8.37454 6.5C8.37306 6.00317 8.17504 5.52712 7.82373 5.17581C7.47242 4.8245 6.99637 4.62648 6.49954 4.625ZM10.5477 6.5C10.5467 6.6752 10.5338 6.85013 10.5092 7.02359L11.6504 7.91703C11.7001 7.95807 11.7336 8.01544 11.7449 8.0789C11.7562 8.14236 11.7445 8.20777 11.712 8.26343L10.6325 10.1272C10.5997 10.1824 10.5485 10.2242 10.4879 10.2453C10.4272 10.2665 10.3611 10.2655 10.3011 10.2427L8.95931 9.70367C8.6799 9.91882 8.37415 10.0974 8.04946 10.235L7.84884 11.6595C7.83761 11.7233 7.80457 11.7813 7.75537 11.8234C7.70616 11.8656 7.64385 11.8893 7.57907 11.8906H5.42001C5.35641 11.8894 5.29511 11.8666 5.24612 11.8261C5.19712 11.7855 5.16333 11.7295 5.15025 11.6673L4.94962 10.2427C4.62404 10.1067 4.31807 9.92787 4.03978 9.71093L2.69798 10.25C2.638 10.2728 2.57189 10.2738 2.51128 10.2527C2.45067 10.2316 2.39943 10.1898 2.36658 10.1347L1.28705 8.27117C1.25455 8.2155 1.24291 8.1501 1.2542 8.08664C1.26549 8.02318 1.29898 7.9658 1.34869 7.92476L2.48986 7.03133C2.46552 6.85524 2.45268 6.67775 2.45142 6.5C2.45239 6.3248 2.46524 6.14987 2.48986 5.9764L1.34869 5.08297C1.29898 5.04193 1.26549 4.98455 1.2542 4.92109C1.24291 4.85763 1.25455 4.79223 1.28705 4.73656L2.36658 2.87281C2.39939 2.81764 2.45061 2.77581 2.51123 2.75467C2.57185 2.73354 2.63798 2.73446 2.69798 2.75727L4.03978 3.29633C4.31918 3.08117 4.62494 2.90262 4.94962 2.765L5.15025 1.34047C5.16147 1.27666 5.19451 1.21873 5.24372 1.17658C5.29292 1.13443 5.35524 1.11068 5.42001 1.10938H7.57907C7.64267 1.11061 7.70397 1.13337 7.75297 1.17394C7.80196 1.21451 7.83576 1.27048 7.84884 1.33273L8.04946 2.75727C8.37545 2.8932 8.68183 3.07204 8.96048 3.28906L10.3011 2.75C10.3611 2.72717 10.4272 2.72622 10.4878 2.74731C10.5484 2.7684 10.5997 2.81018 10.6325 2.86531L11.712 4.72906C11.7445 4.78473 11.7562 4.85013 11.7449 4.91359C11.7336 4.97705 11.7001 5.03443 11.6504 5.07547L10.5092 5.9689C10.5336 6.14491 10.5464 6.32232 10.5477 6.5Z" fill="#718096"/>
</svg>
