<svg width="24" height="23" viewBox="0 0 24 23" fill="none" xmlns="http://www.w3.org/2000/svg">
<path d="M12 2.35858C6.952 2.35858 2.85938 6.45121 2.85938 11.4992C2.85938 16.5472 6.952 20.6398 12 20.6398C17.048 20.6398 21.1406 16.5472 21.1406 11.4992C21.1406 6.45121 17.048 2.35858 12 2.35858Z" fill="white" stroke="#4FD1C5" stroke-width="0.75" stroke-miterlimit="10"/>
<path d="M11.9999 2.35858C9.448 2.35858 7.04858 6.45121 7.04858 11.4992C7.04858 16.5472 9.448 20.6398 11.9999 20.6398C14.5518 20.6398 16.9512 16.5472 16.9512 11.4992C16.9512 6.45121 14.5518 2.35858 11.9999 2.35858Z" fill="white" stroke="#4FD1C5" stroke-width="0.75" stroke-miterlimit="10"/>
<path d="M5.90601 5.40552C7.58647 6.59863 9.702 7.31011 11.9999 7.31011C14.2978 7.31011 16.4133 6.59863 18.0938 5.40552" fill="white"/>
<path d="M5.90601 5.40552C7.58647 6.59863 9.702 7.31011 11.9999 7.31011C14.2978 7.31011 16.4133 6.59863 18.0938 5.40552" stroke="#4FD1C5" stroke-width="0.75" stroke-linecap="round" stroke-linejoin="round"/>
<path d="M18.0938 17.5944C16.4133 16.4013 14.2978 15.6898 11.9999 15.6898C9.702 15.6898 7.58647 16.4013 5.90601 17.5944" stroke="#4FD1C5" stroke-width="0.75" stroke-linecap="round" stroke-linejoin="round"/>
<path d="M11.9998 2.35858V20.6398" stroke="#4FD1C5" stroke-width="0.75" stroke-miterlimit="10"/>
<path d="M21.1406 11.499H2.85938" stroke="#4FD1C5" stroke-width="0.75" stroke-miterlimit="10"/>
</svg>
