<svg width="14" height="13" viewBox="0 0 14 13" fill="none" xmlns="http://www.w3.org/2000/svg">
<path d="M5.04688 11.1875C5.47835 11.1875 5.82812 10.8377 5.82812 10.4062C5.82812 9.97478 5.47835 9.625 5.04688 9.625C4.6154 9.625 4.26562 9.97478 4.26562 10.4062C4.26562 10.8377 4.6154 11.1875 5.04688 11.1875Z" fill="white"/>
<path d="M10.5156 11.1875C10.9471 11.1875 11.2969 10.8377 11.2969 10.4062C11.2969 9.97478 10.9471 9.625 10.5156 9.625C10.0842 9.625 9.73438 9.97478 9.73438 10.4062C9.73438 10.8377 10.0842 11.1875 10.5156 11.1875Z" fill="white"/>
<path d="M11.9023 3.19873C11.8475 3.1316 11.7783 3.07754 11.6999 3.04046C11.6216 3.00338 11.5359 2.98423 11.4492 2.98437H4.0188L3.86914 2.13525C3.85318 2.04481 3.80586 1.96287 3.7355 1.90385C3.66513 1.84482 3.57622 1.81248 3.48437 1.8125H1.92187C1.81827 1.8125 1.71892 1.85366 1.64566 1.92691C1.5724 2.00017 1.53125 2.09952 1.53125 2.20312C1.53125 2.30673 1.5724 2.40608 1.64566 2.47934C1.71892 2.55259 1.81827 2.59375 1.92187 2.59375H3.15674L4.27148 8.91162C4.28744 9.00207 4.33476 9.084 4.40513 9.14302C4.47549 9.20205 4.5644 9.23439 4.65625 9.23437H10.9062C11.0098 9.23437 11.1092 9.19322 11.1825 9.11996C11.2557 9.04671 11.2969 8.94735 11.2969 8.84375C11.2969 8.74015 11.2557 8.64079 11.1825 8.56753C11.1092 8.49428 11.0098 8.45312 10.9062 8.45312H4.98389L4.84619 7.67187H10.7461C10.8816 7.6717 11.0128 7.62473 11.1176 7.53891C11.2224 7.45309 11.2944 7.33369 11.3213 7.20093L12.0244 3.6853C12.0414 3.60022 12.0392 3.51244 12.0181 3.42829C11.997 3.34415 11.9574 3.26574 11.9023 3.19873Z" fill="white"/>
</svg>
