<svg width="621" height="222" viewBox="0 0 621 222" fill="none" xmlns="http://www.w3.org/2000/svg">
<rect x="0.5" width="620" height="222" rx="12" fill="url(#paint0_linear_635_985)"/>
<rect x="98.5" y="87.5" width="7" height="99.5" rx="3.5" fill="white"/>
<rect x="158.5" y="116" width="7" height="71" rx="3.5" fill="white"/>
<rect x="218.5" y="149" width="7" height="38" rx="3.5" fill="white"/>
<rect x="278.5" y="98" width="7" height="89" rx="3.5" fill="white"/>
<rect x="338.5" y="33.5" width="7" height="153.5" rx="3.5" fill="white"/>
<rect x="398.5" y="60.5" width="7" height="126.5" rx="3.5" fill="white"/>
<rect x="458.5" y="42.5" width="7" height="144.5" rx="3.5" fill="white"/>
<rect x="518.5" y="98" width="7" height="89" rx="3.5" fill="white"/>
<rect x="578.5" y="137" width="7" height="50" rx="3.5" fill="white"/>
<path d="M32.2334 183.528C32.2334 184.342 32.3001 184.965 32.4336 185.398C32.5671 185.828 32.8405 186.043 33.2539 186.043C33.6673 186.043 33.9375 185.828 34.0645 185.398C34.1947 184.965 34.2598 184.342 34.2598 183.528C34.2598 182.675 34.1947 182.044 34.0645 181.634C33.9375 181.224 33.6673 181.019 33.2539 181.019C32.8405 181.019 32.5671 181.224 32.4336 181.634C32.3001 182.044 32.2334 182.675 32.2334 183.528ZM33.2539 179.871C34.1556 179.871 34.7871 180.188 35.1484 180.823C35.513 181.458 35.6953 182.36 35.6953 183.528C35.6953 184.697 35.513 185.597 35.1484 186.229C34.7871 186.86 34.1556 187.176 33.2539 187.176C32.3522 187.176 31.7191 186.86 31.3545 186.229C30.9932 185.597 30.8125 184.697 30.8125 183.528C30.8125 182.36 30.9932 181.458 31.3545 180.823C31.7191 180.188 32.3522 179.871 33.2539 179.871Z" fill="white"/>
<path d="M31.1934 153.617V152.67C31.6328 152.65 31.9404 152.621 32.1162 152.582C32.3962 152.52 32.624 152.396 32.7998 152.211C32.9202 152.084 33.0114 151.915 33.0732 151.703C33.109 151.576 33.127 151.482 33.127 151.42H34.2842V158.5H32.8584V153.617H31.1934ZM37.7998 155.028C37.7998 155.842 37.8665 156.465 38 156.898C38.1335 157.328 38.4069 157.543 38.8203 157.543C39.2337 157.543 39.5039 157.328 39.6309 156.898C39.7611 156.465 39.8262 155.842 39.8262 155.028C39.8262 154.175 39.7611 153.544 39.6309 153.134C39.5039 152.724 39.2337 152.519 38.8203 152.519C38.4069 152.519 38.1335 152.724 38 153.134C37.8665 153.544 37.7998 154.175 37.7998 155.028ZM38.8203 151.371C39.722 151.371 40.3535 151.688 40.7148 152.323C41.0794 152.958 41.2617 153.86 41.2617 155.028C41.2617 156.197 41.0794 157.097 40.7148 157.729C40.3535 158.36 39.722 158.676 38.8203 158.676C37.9186 158.676 37.2855 158.36 36.9209 157.729C36.5596 157.097 36.3789 156.197 36.3789 155.028C36.3789 153.86 36.5596 152.958 36.9209 152.323C37.2855 151.688 37.9186 151.371 38.8203 151.371ZM43.3662 155.028C43.3662 155.842 43.4329 156.465 43.5664 156.898C43.6999 157.328 43.9733 157.543 44.3867 157.543C44.8001 157.543 45.0703 157.328 45.1973 156.898C45.3275 156.465 45.3926 155.842 45.3926 155.028C45.3926 154.175 45.3275 153.544 45.1973 153.134C45.0703 152.724 44.8001 152.519 44.3867 152.519C43.9733 152.519 43.6999 152.724 43.5664 153.134C43.4329 153.544 43.3662 154.175 43.3662 155.028ZM44.3867 151.371C45.2884 151.371 45.9199 151.688 46.2812 152.323C46.6458 152.958 46.8281 153.86 46.8281 155.028C46.8281 156.197 46.6458 157.097 46.2812 157.729C45.9199 158.36 45.2884 158.676 44.3867 158.676C43.485 158.676 42.8519 158.36 42.4873 157.729C42.126 157.097 41.9453 156.197 41.9453 155.028C41.9453 153.86 42.126 152.958 42.4873 152.323C42.8519 151.688 43.485 151.371 44.3867 151.371Z" fill="white"/>
<path d="M30.8125 129.5C30.8255 128.992 30.9346 128.528 31.1396 128.108C31.3382 127.636 31.807 127.137 32.5459 126.609C33.1872 126.15 33.6022 125.822 33.791 125.623C34.0807 125.314 34.2256 124.975 34.2256 124.607C34.2256 124.308 34.1426 124.059 33.9766 123.86C33.8105 123.662 33.5729 123.562 33.2637 123.562C32.8405 123.562 32.5524 123.72 32.3994 124.036C32.3115 124.218 32.2594 124.508 32.2432 124.905H30.8906C30.9134 124.303 31.0225 123.816 31.2178 123.445C31.5889 122.739 32.248 122.386 33.1953 122.386C33.944 122.386 34.5397 122.594 34.9824 123.011C35.4251 123.424 35.6465 123.973 35.6465 124.656C35.6465 125.18 35.4902 125.646 35.1777 126.053C34.9727 126.323 34.6357 126.624 34.167 126.956L33.6104 127.352C33.262 127.599 33.0228 127.778 32.8926 127.889C32.7656 127.999 32.6582 128.128 32.5703 128.274H35.6611V129.5H30.8125ZM37.7998 126.028C37.7998 126.842 37.8665 127.465 38 127.898C38.1335 128.328 38.4069 128.543 38.8203 128.543C39.2337 128.543 39.5039 128.328 39.6309 127.898C39.7611 127.465 39.8262 126.842 39.8262 126.028C39.8262 125.175 39.7611 124.544 39.6309 124.134C39.5039 123.724 39.2337 123.519 38.8203 123.519C38.4069 123.519 38.1335 123.724 38 124.134C37.8665 124.544 37.7998 125.175 37.7998 126.028ZM38.8203 122.371C39.722 122.371 40.3535 122.688 40.7148 123.323C41.0794 123.958 41.2617 124.86 41.2617 126.028C41.2617 127.197 41.0794 128.097 40.7148 128.729C40.3535 129.36 39.722 129.676 38.8203 129.676C37.9186 129.676 37.2855 129.36 36.9209 128.729C36.5596 128.097 36.3789 127.197 36.3789 126.028C36.3789 124.86 36.5596 123.958 36.9209 123.323C37.2855 122.688 37.9186 122.371 38.8203 122.371ZM43.3662 126.028C43.3662 126.842 43.4329 127.465 43.5664 127.898C43.6999 128.328 43.9733 128.543 44.3867 128.543C44.8001 128.543 45.0703 128.328 45.1973 127.898C45.3275 127.465 45.3926 126.842 45.3926 126.028C45.3926 125.175 45.3275 124.544 45.1973 124.134C45.0703 123.724 44.8001 123.519 44.3867 123.519C43.9733 123.519 43.6999 123.724 43.5664 124.134C43.4329 124.544 43.3662 125.175 43.3662 126.028ZM44.3867 122.371C45.2884 122.371 45.9199 122.688 46.2812 123.323C46.6458 123.958 46.8281 124.86 46.8281 126.028C46.8281 127.197 46.6458 128.097 46.2812 128.729C45.9199 129.36 45.2884 129.676 44.3867 129.676C43.485 129.676 42.8519 129.36 42.4873 128.729C42.126 128.097 41.9453 127.197 41.9453 126.028C41.9453 124.86 42.126 123.958 42.4873 123.323C42.8519 122.688 43.485 122.371 44.3867 122.371Z" fill="white"/>
<path d="M32.1309 98.3271C32.1309 98.6104 32.1764 98.8447 32.2676 99.0303C32.4368 99.3721 32.7445 99.543 33.1904 99.543C33.4639 99.543 33.7015 99.4502 33.9033 99.2646C34.1084 99.0758 34.2109 98.8057 34.2109 98.4541C34.2109 97.9886 34.0221 97.6777 33.6445 97.5215C33.4297 97.4336 33.0911 97.3896 32.6289 97.3896V96.3936C33.0814 96.387 33.3971 96.3431 33.5762 96.2617C33.8854 96.125 34.04 95.8483 34.04 95.4316C34.04 95.1615 33.9603 94.9417 33.8008 94.7725C33.6445 94.6032 33.4232 94.5186 33.1367 94.5186C32.8079 94.5186 32.5654 94.6227 32.4092 94.8311C32.2562 95.0394 32.1829 95.3177 32.1895 95.666H30.8906C30.9036 95.3145 30.9639 94.9808 31.0713 94.665C31.1852 94.3883 31.3643 94.1328 31.6084 93.8984C31.7907 93.7324 32.0072 93.6055 32.2578 93.5176C32.5085 93.4297 32.8161 93.3857 33.1807 93.3857C33.8577 93.3857 34.403 93.5615 34.8164 93.9131C35.2331 94.2614 35.4414 94.7301 35.4414 95.3193C35.4414 95.736 35.3177 96.0876 35.0703 96.374C34.9141 96.5531 34.7513 96.6751 34.582 96.7402C34.709 96.7402 34.8913 96.8493 35.1289 97.0674C35.4837 97.3962 35.6611 97.8454 35.6611 98.415C35.6611 99.014 35.4528 99.5413 35.0361 99.9971C34.6227 100.45 34.0091 100.676 33.1953 100.676C32.1927 100.676 31.4961 100.349 31.1055 99.6943C30.9004 99.346 30.7865 98.8903 30.7637 98.3271H32.1309ZM37.7998 97.0283C37.7998 97.8421 37.8665 98.4655 38 98.8984C38.1335 99.3281 38.4069 99.543 38.8203 99.543C39.2337 99.543 39.5039 99.3281 39.6309 98.8984C39.7611 98.4655 39.8262 97.8421 39.8262 97.0283C39.8262 96.1755 39.7611 95.5439 39.6309 95.1338C39.5039 94.7236 39.2337 94.5186 38.8203 94.5186C38.4069 94.5186 38.1335 94.7236 38 95.1338C37.8665 95.5439 37.7998 96.1755 37.7998 97.0283ZM38.8203 93.3711C39.722 93.3711 40.3535 93.6885 40.7148 94.3232C41.0794 94.958 41.2617 95.8597 41.2617 97.0283C41.2617 98.1969 41.0794 99.097 40.7148 99.7285C40.3535 100.36 39.722 100.676 38.8203 100.676C37.9186 100.676 37.2855 100.36 36.9209 99.7285C36.5596 99.097 36.3789 98.1969 36.3789 97.0283C36.3789 95.8597 36.5596 94.958 36.9209 94.3232C37.2855 93.6885 37.9186 93.3711 38.8203 93.3711ZM43.3662 97.0283C43.3662 97.8421 43.4329 98.4655 43.5664 98.8984C43.6999 99.3281 43.9733 99.543 44.3867 99.543C44.8001 99.543 45.0703 99.3281 45.1973 98.8984C45.3275 98.4655 45.3926 97.8421 45.3926 97.0283C45.3926 96.1755 45.3275 95.5439 45.1973 95.1338C45.0703 94.7236 44.8001 94.5186 44.3867 94.5186C43.9733 94.5186 43.6999 94.7236 43.5664 95.1338C43.4329 95.5439 43.3662 96.1755 43.3662 97.0283ZM44.3867 93.3711C45.2884 93.3711 45.9199 93.6885 46.2812 94.3232C46.6458 94.958 46.8281 95.8597 46.8281 97.0283C46.8281 98.1969 46.6458 99.097 46.2812 99.7285C45.9199 100.36 45.2884 100.676 44.3867 100.676C43.485 100.676 42.8519 100.36 42.4873 99.7285C42.126 99.097 41.9453 98.1969 41.9453 97.0283C41.9453 95.8597 42.126 94.958 42.4873 94.3232C42.8519 93.6885 43.485 93.3711 44.3867 93.3711Z" fill="white"/>
<path d="M35.7295 69.9766H34.9287V71.5H33.5664V69.9766H30.7637V68.7607L33.3662 64.4639H34.9287V68.8877H35.7295V69.9766ZM33.5664 68.8877V65.8311L31.7939 68.8877H33.5664ZM37.7998 68.0283C37.7998 68.8421 37.8665 69.4655 38 69.8984C38.1335 70.3281 38.4069 70.543 38.8203 70.543C39.2337 70.543 39.5039 70.3281 39.6309 69.8984C39.7611 69.4655 39.8262 68.8421 39.8262 68.0283C39.8262 67.1755 39.7611 66.5439 39.6309 66.1338C39.5039 65.7236 39.2337 65.5186 38.8203 65.5186C38.4069 65.5186 38.1335 65.7236 38 66.1338C37.8665 66.5439 37.7998 67.1755 37.7998 68.0283ZM38.8203 64.3711C39.722 64.3711 40.3535 64.6885 40.7148 65.3232C41.0794 65.958 41.2617 66.8597 41.2617 68.0283C41.2617 69.1969 41.0794 70.097 40.7148 70.7285C40.3535 71.36 39.722 71.6758 38.8203 71.6758C37.9186 71.6758 37.2855 71.36 36.9209 70.7285C36.5596 70.097 36.3789 69.1969 36.3789 68.0283C36.3789 66.8597 36.5596 65.958 36.9209 65.3232C37.2855 64.6885 37.9186 64.3711 38.8203 64.3711ZM43.3662 68.0283C43.3662 68.8421 43.4329 69.4655 43.5664 69.8984C43.6999 70.3281 43.9733 70.543 44.3867 70.543C44.8001 70.543 45.0703 70.3281 45.1973 69.8984C45.3275 69.4655 45.3926 68.8421 45.3926 68.0283C45.3926 67.1755 45.3275 66.5439 45.1973 66.1338C45.0703 65.7236 44.8001 65.5186 44.3867 65.5186C43.9733 65.5186 43.6999 65.7236 43.5664 66.1338C43.4329 66.5439 43.3662 67.1755 43.3662 68.0283ZM44.3867 64.3711C45.2884 64.3711 45.9199 64.6885 46.2812 65.3232C46.6458 65.958 46.8281 66.8597 46.8281 68.0283C46.8281 69.1969 46.6458 70.097 46.2812 70.7285C45.9199 71.36 45.2884 71.6758 44.3867 71.6758C43.485 71.6758 42.8519 71.36 42.4873 70.7285C42.126 70.097 41.9453 69.1969 41.9453 68.0283C41.9453 66.8597 42.126 65.958 42.4873 65.3232C42.8519 64.6885 43.485 64.3711 44.3867 64.3711Z" fill="white"/>
<path d="M32.1504 40.6055C32.2057 40.9082 32.3115 41.1426 32.4678 41.3086C32.624 41.4714 32.8519 41.5527 33.1514 41.5527C33.4964 41.5527 33.7585 41.4323 33.9375 41.1914C34.1198 40.9473 34.2109 40.6413 34.2109 40.2734C34.2109 39.9121 34.1263 39.6077 33.957 39.3604C33.7878 39.1097 33.5241 38.9844 33.166 38.9844C32.9967 38.9844 32.8503 39.0055 32.7266 39.0479C32.5085 39.126 32.3441 39.2708 32.2334 39.4824L30.9834 39.4238L31.4814 35.5127H35.3828V36.6943H32.4873L32.2334 38.2422C32.4482 38.1022 32.6159 38.0094 32.7363 37.9639C32.9382 37.889 33.1839 37.8516 33.4736 37.8516C34.0596 37.8516 34.5706 38.0485 35.0068 38.4424C35.443 38.8363 35.6611 39.4092 35.6611 40.1611C35.6611 40.8154 35.4512 41.3997 35.0312 41.9141C34.6113 42.4284 33.9831 42.6855 33.1465 42.6855C32.4727 42.6855 31.9193 42.5049 31.4863 42.1436C31.0534 41.7822 30.8125 41.2695 30.7637 40.6055H32.1504ZM37.7998 39.0283C37.7998 39.8421 37.8665 40.4655 38 40.8984C38.1335 41.3281 38.4069 41.543 38.8203 41.543C39.2337 41.543 39.5039 41.3281 39.6309 40.8984C39.7611 40.4655 39.8262 39.8421 39.8262 39.0283C39.8262 38.1755 39.7611 37.5439 39.6309 37.1338C39.5039 36.7236 39.2337 36.5186 38.8203 36.5186C38.4069 36.5186 38.1335 36.7236 38 37.1338C37.8665 37.5439 37.7998 38.1755 37.7998 39.0283ZM38.8203 35.3711C39.722 35.3711 40.3535 35.6885 40.7148 36.3232C41.0794 36.958 41.2617 37.8597 41.2617 39.0283C41.2617 40.1969 41.0794 41.097 40.7148 41.7285C40.3535 42.36 39.722 42.6758 38.8203 42.6758C37.9186 42.6758 37.2855 42.36 36.9209 41.7285C36.5596 41.097 36.3789 40.1969 36.3789 39.0283C36.3789 37.8597 36.5596 36.958 36.9209 36.3232C37.2855 35.6885 37.9186 35.3711 38.8203 35.3711ZM43.3662 39.0283C43.3662 39.8421 43.4329 40.4655 43.5664 40.8984C43.6999 41.3281 43.9733 41.543 44.3867 41.543C44.8001 41.543 45.0703 41.3281 45.1973 40.8984C45.3275 40.4655 45.3926 39.8421 45.3926 39.0283C45.3926 38.1755 45.3275 37.5439 45.1973 37.1338C45.0703 36.7236 44.8001 36.5186 44.3867 36.5186C43.9733 36.5186 43.6999 36.7236 43.5664 37.1338C43.4329 37.5439 43.3662 38.1755 43.3662 39.0283ZM44.3867 35.3711C45.2884 35.3711 45.9199 35.6885 46.2812 36.3232C46.6458 36.958 46.8281 37.8597 46.8281 39.0283C46.8281 40.1969 46.6458 41.097 46.2812 41.7285C45.9199 42.36 45.2884 42.6758 44.3867 42.6758C43.485 42.6758 42.8519 42.36 42.4873 41.7285C42.126 41.097 41.9453 40.1969 41.9453 39.0283C41.9453 37.8597 42.126 36.958 42.4873 36.3232C42.8519 35.6885 43.485 35.3711 44.3867 35.3711Z" fill="white"/>
<defs>
<linearGradient id="paint0_linear_635_985" x1="16.5" y1="222" x2="488.75" y2="27.75" gradientUnits="userSpaceOnUse">
<stop stop-color="#313860"/>
<stop offset="1" stop-color="#151928"/>
</linearGradient>
</defs>
</svg>
