<svg width="14" height="13" viewBox="0 0 14 13" fill="none" xmlns="http://www.w3.org/2000/svg">
<path d="M12.411 1.18441C12.4066 1.16282 12.3961 1.14294 12.3807 1.12712C12.3654 1.11129 12.3458 1.10017 12.3244 1.09505C10.8944 0.745445 7.59049 1.99129 5.80045 3.7806C5.48118 4.09729 5.19012 4.4412 4.93058 4.80843C4.37858 4.7596 3.82658 4.80037 3.35612 5.00545C2.02872 5.58968 1.64225 7.11409 1.53458 7.76986C1.52848 7.80575 1.53078 7.84257 1.54131 7.87742C1.55185 7.91227 1.57032 7.9442 1.59529 7.97071C1.62025 7.99721 1.65102 8.01756 1.68518 8.03015C1.71934 8.04275 1.75596 8.04725 1.79215 8.04329L3.92374 7.80819C3.92527 7.96889 3.93496 8.12942 3.9528 8.28914C3.96352 8.40006 4.01276 8.50372 4.09196 8.58211L4.9174 9.4056C4.99586 9.48469 5.09948 9.53391 5.21036 9.54476C5.36919 9.56252 5.52882 9.57222 5.68864 9.57381L5.45475 11.7027C5.45085 11.7389 5.45538 11.7755 5.46799 11.8096C5.48061 11.8438 5.50096 11.8745 5.52745 11.8995C5.55394 11.9244 5.58585 11.9429 5.62067 11.9534C5.6555 11.964 5.6923 11.9663 5.72819 11.9603C6.38273 11.8553 7.90983 11.4688 8.49064 10.1414C8.69571 9.67098 8.73771 9.12166 8.69034 8.57235C9.05846 8.31278 9.40327 8.02164 9.72086 7.70223C11.5165 5.91561 12.7553 2.68539 12.411 1.18441ZM7.92936 5.57088C7.76539 5.40702 7.6537 5.19822 7.60843 4.97087C7.56315 4.74353 7.58631 4.50787 7.67498 4.29369C7.76366 4.07951 7.91386 3.89645 8.10659 3.76765C8.29932 3.63884 8.52592 3.5701 8.75773 3.5701C8.98953 3.5701 9.21613 3.63884 9.40886 3.76765C9.60159 3.89645 9.7518 4.07951 9.84047 4.29369C9.92914 4.50787 9.95231 4.74353 9.90703 4.97087C9.86175 5.19822 9.75006 5.40702 9.58609 5.57088C9.47737 5.67976 9.34824 5.76614 9.2061 5.82508C9.06396 5.88402 8.9116 5.91435 8.75773 5.91435C8.60385 5.91435 8.45149 5.88402 8.30935 5.82508C8.16721 5.76614 8.03808 5.67976 7.92936 5.57088Z" fill="white"/>
<path d="M4.86133 10.0022C4.72754 10.1362 4.51294 10.1885 4.25464 10.2332C3.67432 10.332 3.16186 9.83057 3.26611 9.2439C3.30591 9.02148 3.42358 8.70972 3.49683 8.63648C3.51283 8.62078 3.52349 8.60043 3.52728 8.57833C3.53107 8.55623 3.5278 8.5335 3.51793 8.51336C3.50807 8.49323 3.49211 8.47671 3.47232 8.46616C3.45254 8.45561 3.42993 8.45156 3.40771 8.45459C3.08319 8.4943 2.78128 8.64143 2.55005 8.87256C1.97607 9.44702 1.92188 11.5786 1.92188 11.5786C1.92188 11.5786 4.05469 11.5244 4.62866 10.95C4.86051 10.7189 5.00783 10.4165 5.04687 10.0916C5.05591 9.9895 4.93164 9.92871 4.86133 10.0022Z" fill="white"/>
</svg>
