<svg width="14" height="13" viewBox="0 0 14 13" fill="none" xmlns="http://www.w3.org/2000/svg">
<path d="M12.2136 3.19312C12.1855 3.13842 12.1448 3.09113 12.095 3.05511C12.0451 3.01908 11.9874 2.99535 11.9266 2.98583C11.8659 2.97631 11.8037 2.98128 11.7452 3.00033C11.6867 3.01938 11.6336 3.05198 11.5901 3.09547L10.0901 4.59644C10.0164 4.66901 9.9172 4.70969 9.81382 4.70969C9.71044 4.70969 9.61121 4.66901 9.53757 4.59644L8.88914 3.94703C8.85285 3.91075 8.82407 3.86769 8.80444 3.82029C8.7848 3.77289 8.77469 3.72209 8.77469 3.67078C8.77469 3.61948 8.7848 3.56868 8.80444 3.52128C8.82407 3.47388 8.85285 3.43081 8.88914 3.39454L10.3828 1.90064C10.4276 1.85587 10.4608 1.80089 10.4796 1.74043C10.4984 1.67996 10.5022 1.61584 10.4907 1.55357C10.4793 1.4913 10.4528 1.43276 10.4137 1.38298C10.3745 1.3332 10.3239 1.29368 10.2661 1.26783C9.13792 0.763436 7.72971 1.02662 6.84177 1.90797C6.08738 2.65699 5.86253 3.8274 6.22532 5.11915C6.24488 5.18803 6.24499 5.26099 6.22565 5.32993C6.2063 5.39888 6.16824 5.46112 6.1157 5.50977L2.05125 9.22193C1.89291 9.3641 1.76519 9.53703 1.67589 9.73018C1.58658 9.92333 1.53756 10.1326 1.53182 10.3454C1.52608 10.5581 1.56373 10.7697 1.64248 10.9674C1.72123 11.1651 1.83943 11.3447 1.98987 11.4952C2.1403 11.6457 2.31982 11.764 2.51748 11.8428C2.71513 11.9217 2.92677 11.9594 3.1395 11.9538C3.35222 11.9481 3.56156 11.8992 3.75475 11.81C3.94794 11.7207 4.12093 11.5931 4.26316 11.4348L8.01511 7.36134C8.06306 7.30947 8.12426 7.27167 8.1921 7.25201C8.25995 7.23235 8.33187 7.23157 8.40012 7.24976C8.76788 7.35053 9.14723 7.40281 9.52854 7.40528C10.344 7.40528 11.0595 7.14136 11.5757 6.63282C12.5315 5.69117 12.6772 4.094 12.2136 3.19312ZM3.17893 11.1675C3.01814 11.185 2.85587 11.1522 2.7145 11.0736C2.57314 10.995 2.45966 10.8745 2.38972 10.7287C2.31978 10.5828 2.29684 10.4189 2.32405 10.2594C2.35126 10.1 2.42729 9.95291 2.54164 9.83852C2.65599 9.72413 2.80303 9.64805 2.96246 9.62078C3.12189 9.59351 3.28585 9.6164 3.43172 9.68629C3.57759 9.75618 3.69817 9.86962 3.77682 10.011C3.85548 10.1523 3.88832 10.3146 3.87083 10.4753C3.85158 10.6523 3.7725 10.8173 3.64669 10.9432C3.52087 11.069 3.35585 11.1482 3.17893 11.1675Z" fill="white"/>
</svg>
