<svg width="14" height="13" viewBox="0 0 14 13" fill="none" xmlns="http://www.w3.org/2000/svg">
<path d="M3.08179 2.78764H10.8943C10.9855 2.7876 11.0767 2.79339 11.1672 2.80497C11.1366 2.58959 11.0626 2.38264 10.9497 2.19662C10.8369 2.0106 10.6876 1.84935 10.5108 1.7226C10.3339 1.59585 10.1333 1.50622 9.92088 1.45912C9.70847 1.41201 9.48873 1.40841 9.2749 1.44853L2.84985 2.54545H2.84253C2.43923 2.62257 2.08058 2.85076 1.83984 3.18339C2.20254 2.92541 2.6367 2.78706 3.08179 2.78764V2.78764Z" fill="white"/>
<path d="M10.8945 3.375H3.08203C2.66777 3.37545 2.2706 3.54022 1.97768 3.83315C1.68475 4.12607 1.51998 4.52324 1.51953 4.9375V9.625C1.51998 10.0393 1.68475 10.4364 1.97768 10.7294C2.2706 11.0223 2.66777 11.187 3.08203 11.1875H10.8945C11.3088 11.187 11.706 11.0223 11.9989 10.7294C12.2918 10.4364 12.4566 10.0393 12.457 9.625V4.9375C12.4566 4.52324 12.2918 4.12607 11.9989 3.83315C11.706 3.54022 11.3088 3.37545 10.8945 3.375V3.375ZM9.73486 8.0625C9.58034 8.0625 9.4293 8.01668 9.30082 7.93083C9.17235 7.84499 9.07221 7.72298 9.01308 7.58022C8.95395 7.43747 8.93848 7.28038 8.96862 7.12883C8.99877 6.97729 9.07317 6.83808 9.18243 6.72882C9.29169 6.61956 9.4309 6.54516 9.58245 6.51501C9.73399 6.48487 9.89108 6.50034 10.0338 6.55947C10.1766 6.6186 10.2986 6.71873 10.3844 6.84721C10.4703 6.97569 10.5161 7.12673 10.5161 7.28125C10.5161 7.48845 10.4338 7.68716 10.2873 7.83368C10.1408 7.98019 9.94206 8.0625 9.73486 8.0625Z" fill="white"/>
<path d="M1.53125 6.58398V4.15478C1.53125 3.62573 1.82422 2.73877 2.84106 2.54663C3.7041 2.38477 4.55859 2.38477 4.55859 2.38477C4.55859 2.38477 5.12012 2.77539 4.65625 2.77539C4.19238 2.77539 4.20459 3.37353 4.65625 3.37353C5.10791 3.37353 4.65625 3.94727 4.65625 3.94727L2.8374 6.01025L1.53125 6.58398Z" fill="white"/>
</svg>
