<svg width="21" height="21" viewBox="0 0 21 21" fill="none" xmlns="http://www.w3.org/2000/svg">
<g clip-path="url(#clip0_10_1394)">
<path d="M10.4998 7.16667C11.4165 7.16667 12.1665 6.41667 12.1665 5.5C12.1665 4.58333 11.4165 3.83333 10.4998 3.83333C9.58313 3.83333 8.83313 4.58333 8.83313 5.5C8.83313 6.41667 9.58313 7.16667 10.4998 7.16667ZM10.4998 8.83333C9.58313 8.83333 8.83313 9.58333 8.83313 10.5C8.83313 11.4167 9.58313 12.1667 10.4998 12.1667C11.4165 12.1667 12.1665 11.4167 12.1665 10.5C12.1665 9.58333 11.4165 8.83333 10.4998 8.83333ZM10.4998 13.8333C9.58313 13.8333 8.83313 14.5833 8.83313 15.5C8.83313 16.4167 9.58313 17.1667 10.4998 17.1667C11.4165 17.1667 12.1665 16.4167 12.1665 15.5C12.1665 14.5833 11.4165 13.8333 10.4998 13.8333Z" fill="#A0AEC0"/>
</g>
<defs>
<clipPath id="clip0_10_1394">
<rect width="20" height="20" fill="white" transform="translate(0.499756 0.5)"/>
</clipPath>
</defs>
</svg>
