<svg width="884" height="297" viewBox="0 0 884 297" fill="none" xmlns="http://www.w3.org/2000/svg">
<path d="M867.722 287.053V291.75H869.108C869.818 291.75 870.313 291.4 870.593 290.7C870.746 290.316 870.822 289.859 870.822 289.328C870.822 288.596 870.707 288.034 870.476 287.644C870.248 287.25 869.792 287.053 869.108 287.053H867.722ZM869.362 285.803C869.808 285.809 870.179 285.861 870.476 285.959C870.98 286.125 871.389 286.429 871.701 286.872C871.952 287.23 872.123 287.618 872.214 288.034C872.305 288.451 872.351 288.848 872.351 289.226C872.351 290.183 872.159 290.993 871.774 291.657C871.254 292.552 870.45 293 869.362 293H866.262V285.803H869.362ZM875.476 288.684C875.153 288.684 874.903 288.785 874.724 288.986C874.548 289.188 874.437 289.462 874.392 289.807H876.555C876.532 289.439 876.42 289.16 876.218 288.972C876.019 288.78 875.772 288.684 875.476 288.684ZM875.476 287.536C875.918 287.536 876.317 287.619 876.672 287.785C877.027 287.951 877.32 288.213 877.551 288.571C877.759 288.887 877.894 289.253 877.956 289.67C877.992 289.914 878.007 290.266 878 290.725H874.357C874.377 291.258 874.545 291.633 874.86 291.848C875.052 291.981 875.284 292.048 875.554 292.048C875.84 292.048 876.073 291.966 876.252 291.804C876.35 291.716 876.436 291.594 876.511 291.438H877.932C877.896 291.753 877.731 292.074 877.438 292.399C876.983 292.917 876.345 293.176 875.524 293.176C874.847 293.176 874.25 292.958 873.732 292.521C873.215 292.085 872.956 291.376 872.956 290.393C872.956 289.471 873.189 288.765 873.654 288.273C874.123 287.782 874.73 287.536 875.476 287.536ZM882.121 289.587C882.095 289.388 882.028 289.209 881.921 289.05C881.765 288.835 881.522 288.728 881.193 288.728C880.725 288.728 880.404 288.96 880.231 289.426C880.14 289.673 880.095 290.002 880.095 290.412C880.095 290.803 880.14 291.117 880.231 291.354C880.397 291.797 880.71 292.019 881.169 292.019C881.494 292.019 881.726 291.931 881.862 291.755C881.999 291.579 882.082 291.351 882.111 291.071H883.532C883.5 291.494 883.347 291.895 883.073 292.272C882.637 292.881 881.991 293.186 881.135 293.186C880.279 293.186 879.649 292.932 879.245 292.424C878.841 291.916 878.64 291.257 878.64 290.446C878.64 289.532 878.863 288.82 879.309 288.312C879.755 287.805 880.37 287.551 881.154 287.551C881.822 287.551 882.367 287.701 882.79 288C883.216 288.299 883.469 288.828 883.547 289.587H882.121Z" fill="#CBD5E0"/>
<path d="M790.237 285.803H791.814L794.681 290.827V285.803H796.082V293H794.578L791.639 287.888V293H790.237V285.803ZM799.764 292.019C800.171 292.019 800.483 291.874 800.701 291.584C800.919 291.294 801.028 290.882 801.028 290.349C801.028 289.815 800.919 289.405 800.701 289.118C800.483 288.828 800.171 288.684 799.764 288.684C799.357 288.684 799.043 288.828 798.821 289.118C798.603 289.405 798.494 289.815 798.494 290.349C798.494 290.882 798.603 291.294 798.821 291.584C799.043 291.874 799.357 292.019 799.764 292.019ZM802.488 290.349C802.488 291.13 802.264 291.799 801.814 292.355C801.365 292.909 800.683 293.186 799.769 293.186C798.854 293.186 798.172 292.909 797.723 292.355C797.273 291.799 797.049 291.13 797.049 290.349C797.049 289.58 797.273 288.915 797.723 288.352C798.172 287.788 798.854 287.507 799.769 287.507C800.683 287.507 801.365 287.788 801.814 288.352C802.264 288.915 802.488 289.58 802.488 290.349ZM806.771 287.678H808.265L806.346 293H804.876L802.967 287.678H804.529L805.638 291.604L806.771 287.678Z" fill="#CBD5E0"/>
<path d="M719.445 291.926C720.041 291.926 720.513 291.706 720.861 291.267C721.213 290.827 721.389 290.202 721.389 289.392C721.389 288.584 721.213 287.961 720.861 287.521C720.513 287.079 720.041 286.857 719.445 286.857C718.85 286.857 718.374 287.077 718.02 287.517C717.665 287.956 717.487 288.581 717.487 289.392C717.487 290.202 717.665 290.827 718.02 291.267C718.374 291.706 718.85 291.926 719.445 291.926ZM722.893 289.392C722.893 290.684 722.53 291.674 721.804 292.36C721.26 292.92 720.474 293.2 719.445 293.2C718.417 293.2 717.631 292.92 717.087 292.36C716.358 291.674 715.993 290.684 715.993 289.392C715.993 288.073 716.358 287.084 717.087 286.423C717.631 285.863 718.417 285.583 719.445 285.583C720.474 285.583 721.26 285.863 721.804 286.423C722.53 287.084 722.893 288.073 722.893 289.392ZM727.111 289.587C727.085 289.388 727.019 289.209 726.911 289.05C726.755 288.835 726.512 288.728 726.184 288.728C725.715 288.728 725.394 288.96 725.222 289.426C725.131 289.673 725.085 290.002 725.085 290.412C725.085 290.803 725.131 291.117 725.222 291.354C725.388 291.797 725.7 292.019 726.159 292.019C726.485 292.019 726.716 291.931 726.853 291.755C726.989 291.579 727.072 291.351 727.102 291.071H728.522C728.49 291.494 728.337 291.895 728.063 292.272C727.627 292.881 726.981 293.186 726.125 293.186C725.269 293.186 724.639 292.932 724.235 292.424C723.832 291.916 723.63 291.257 723.63 290.446C723.63 289.532 723.853 288.82 724.299 288.312C724.745 287.805 725.36 287.551 726.145 287.551C726.812 287.551 727.357 287.701 727.78 288C728.207 288.299 728.459 288.828 728.537 289.587H727.111ZM728.952 288.718V287.727H729.694V286.242H731.071V287.727H731.936V288.718H731.071V291.53C731.071 291.748 731.099 291.885 731.154 291.94C731.21 291.993 731.379 292.019 731.662 292.019C731.704 292.019 731.748 292.019 731.794 292.019C731.843 292.015 731.89 292.012 731.936 292.009V293.049L731.276 293.073C730.619 293.096 730.17 292.982 729.929 292.731C729.772 292.572 729.694 292.326 729.694 291.994V288.718H728.952Z" fill="#CBD5E0"/>
<path d="M641.851 290.778C641.896 291.107 641.986 291.353 642.119 291.516C642.363 291.812 642.782 291.96 643.374 291.96C643.729 291.96 644.017 291.921 644.238 291.843C644.658 291.693 644.868 291.415 644.868 291.008C644.868 290.77 644.764 290.586 644.556 290.456C644.347 290.329 644.02 290.217 643.574 290.119L642.812 289.948C642.064 289.779 641.546 289.595 641.26 289.396C640.775 289.064 640.532 288.545 640.532 287.839C640.532 287.194 640.767 286.659 641.235 286.232C641.704 285.806 642.393 285.593 643.301 285.593C644.059 285.593 644.705 285.795 645.239 286.198C645.776 286.599 646.058 287.181 646.084 287.946H644.639C644.613 287.513 644.424 287.206 644.072 287.023C643.838 286.903 643.547 286.843 643.198 286.843C642.811 286.843 642.502 286.921 642.271 287.077C642.039 287.233 641.924 287.451 641.924 287.731C641.924 287.989 642.038 288.181 642.266 288.308C642.412 288.392 642.725 288.492 643.203 288.605L644.443 288.903C644.987 289.034 645.397 289.208 645.674 289.426C646.104 289.764 646.318 290.254 646.318 290.896C646.318 291.553 646.066 292.1 645.562 292.536C645.06 292.969 644.351 293.186 643.433 293.186C642.495 293.186 641.758 292.972 641.221 292.546C640.684 292.116 640.415 291.527 640.415 290.778H641.851ZM649.419 288.684C649.097 288.684 648.846 288.785 648.667 288.986C648.491 289.188 648.381 289.462 648.335 289.807H650.498C650.475 289.439 650.363 289.16 650.161 288.972C649.963 288.78 649.715 288.684 649.419 288.684ZM649.419 287.536C649.862 287.536 650.26 287.619 650.615 287.785C650.97 287.951 651.263 288.213 651.494 288.571C651.702 288.887 651.838 289.253 651.899 289.67C651.935 289.914 651.95 290.266 651.943 290.725H648.301C648.32 291.258 648.488 291.633 648.804 291.848C648.996 291.981 649.227 292.048 649.497 292.048C649.784 292.048 650.016 291.966 650.195 291.804C650.293 291.716 650.379 291.594 650.454 291.438H651.875C651.839 291.753 651.675 292.074 651.382 292.399C650.926 292.917 650.288 293.176 649.468 293.176C648.791 293.176 648.193 292.958 647.676 292.521C647.158 292.085 646.899 291.376 646.899 290.393C646.899 289.471 647.132 288.765 647.598 288.273C648.066 287.782 648.674 287.536 649.419 287.536ZM656.553 290.339C656.553 289.929 656.458 289.566 656.27 289.25C656.084 288.934 655.781 288.776 655.361 288.776C654.857 288.776 654.51 289.016 654.321 289.494C654.224 289.748 654.175 290.07 654.175 290.461C654.175 291.079 654.339 291.514 654.668 291.765C654.863 291.911 655.094 291.984 655.361 291.984C655.749 291.984 656.043 291.835 656.245 291.535C656.45 291.236 656.553 290.837 656.553 290.339ZM655.762 287.561C656.383 287.561 656.909 287.79 657.339 288.249C657.772 288.708 657.988 289.382 657.988 290.271C657.988 291.208 657.777 291.923 657.354 292.414C656.934 292.906 656.392 293.151 655.728 293.151C655.304 293.151 654.953 293.046 654.673 292.834C654.52 292.717 654.37 292.546 654.224 292.321V295.095H652.847V287.678H654.18V288.464C654.329 288.233 654.489 288.05 654.658 287.917C654.967 287.679 655.335 287.561 655.762 287.561Z" fill="#CBD5E0"/>
<path d="M566.229 290.28H568.056L567.157 287.448L566.229 290.28ZM566.322 285.803H568.021L570.57 293H568.939L568.476 291.521H565.824L565.326 293H563.754L566.322 285.803ZM572.763 287.678V290.886C572.763 291.188 572.799 291.416 572.87 291.569C572.997 291.84 573.246 291.975 573.617 291.975C574.092 291.975 574.418 291.783 574.594 291.398C574.685 291.19 574.73 290.915 574.73 290.573V287.678H576.142V293H574.789V292.248C574.776 292.264 574.743 292.313 574.691 292.395C574.639 292.476 574.577 292.548 574.506 292.609C574.288 292.805 574.076 292.938 573.871 293.01C573.669 293.081 573.432 293.117 573.158 293.117C572.37 293.117 571.84 292.834 571.566 292.268C571.413 291.955 571.337 291.494 571.337 290.886V287.678H572.763ZM579.774 291.857C580.1 291.857 580.375 291.735 580.6 291.491C580.824 291.244 580.937 290.852 580.937 290.314C580.937 289.81 580.829 289.426 580.614 289.162C580.403 288.898 580.118 288.767 579.76 288.767C579.271 288.767 578.935 288.996 578.749 289.455C578.651 289.699 578.603 290 578.603 290.358C578.603 290.668 578.655 290.943 578.759 291.184C578.948 291.633 579.286 291.857 579.774 291.857ZM579.428 287.551C579.695 287.551 579.927 287.591 580.126 287.673C580.465 287.813 580.738 288.07 580.946 288.444V287.678H582.299V292.727C582.299 293.413 582.183 293.931 581.952 294.279C581.555 294.878 580.793 295.178 579.667 295.178C578.987 295.178 578.432 295.044 578.002 294.777C577.572 294.51 577.335 294.112 577.289 293.581H578.803C578.842 293.744 578.905 293.861 578.993 293.933C579.143 294.06 579.395 294.123 579.75 294.123C580.251 294.123 580.587 293.955 580.756 293.62C580.867 293.405 580.922 293.044 580.922 292.536V292.194C580.788 292.422 580.645 292.593 580.492 292.707C580.215 292.919 579.856 293.024 579.413 293.024C578.729 293.024 578.183 292.785 577.772 292.307C577.366 291.825 577.162 291.174 577.162 290.354C577.162 289.562 577.359 288.898 577.753 288.361C578.147 287.821 578.705 287.551 579.428 287.551Z" fill="#CBD5E0"/>
<path d="M493.641 290.271V290.437C493.654 290.993 493.714 291.385 493.821 291.613C493.932 291.838 494.166 291.95 494.524 291.95C494.879 291.95 495.114 291.826 495.228 291.579C495.296 291.433 495.33 291.185 495.33 290.837V285.803H496.834V290.812C496.834 291.424 496.728 291.91 496.517 292.268C496.159 292.873 495.512 293.176 494.578 293.176C493.644 293.176 493.017 292.932 492.698 292.443C492.379 291.952 492.22 291.283 492.22 290.437V290.271H493.641ZM499.603 287.678V290.886C499.603 291.188 499.638 291.416 499.71 291.569C499.837 291.84 500.086 291.975 500.457 291.975C500.932 291.975 501.258 291.783 501.434 291.398C501.525 291.19 501.57 290.915 501.57 290.573V287.678H502.981V293H501.629V292.248C501.616 292.264 501.583 292.313 501.531 292.395C501.479 292.476 501.417 292.548 501.346 292.609C501.128 292.805 500.916 292.938 500.711 293.01C500.509 293.081 500.271 293.117 499.998 293.117C499.21 293.117 498.68 292.834 498.406 292.268C498.253 291.955 498.177 291.494 498.177 290.886V287.678H499.603ZM505.75 293H504.358V285.803H505.75V293Z" fill="#CBD5E0"/>
<path d="M418.641 290.271V290.437C418.654 290.993 418.714 291.385 418.821 291.613C418.932 291.838 419.166 291.95 419.524 291.95C419.879 291.95 420.114 291.826 420.228 291.579C420.296 291.433 420.33 291.185 420.33 290.837V285.803H421.834V290.812C421.834 291.424 421.728 291.91 421.517 292.268C421.159 292.873 420.512 293.176 419.578 293.176C418.644 293.176 418.017 292.932 417.698 292.443C417.379 291.952 417.22 291.283 417.22 290.437V290.271H418.641ZM424.603 287.678V290.886C424.603 291.188 424.638 291.416 424.71 291.569C424.837 291.84 425.086 291.975 425.457 291.975C425.932 291.975 426.258 291.783 426.434 291.398C426.525 291.19 426.57 290.915 426.57 290.573V287.678H427.981V293H426.629V292.248C426.616 292.264 426.583 292.313 426.531 292.395C426.479 292.476 426.417 292.548 426.346 292.609C426.128 292.805 425.916 292.938 425.711 293.01C425.509 293.081 425.271 293.117 424.998 293.117C424.21 293.117 423.68 292.834 423.406 292.268C423.253 291.955 423.177 291.494 423.177 290.886V287.678H424.603ZM432.278 287.551C432.828 287.551 433.278 287.696 433.626 287.985C433.978 288.272 434.153 288.749 434.153 289.416V293H432.728V289.763C432.728 289.483 432.69 289.268 432.615 289.118C432.479 288.845 432.218 288.708 431.834 288.708C431.362 288.708 431.038 288.908 430.862 289.309C430.771 289.52 430.726 289.79 430.726 290.119V293H429.339V287.688H430.682V288.464C430.861 288.19 431.03 287.993 431.189 287.873C431.476 287.658 431.839 287.551 432.278 287.551Z" fill="#CBD5E0"/>
<path d="M346.032 285.803H348.195V293H346.794V288.132C346.794 287.992 346.796 287.797 346.799 287.546C346.802 287.292 346.804 287.097 346.804 286.96L345.441 293H343.981L342.629 286.96C342.629 287.097 342.631 287.292 342.634 287.546C342.637 287.797 342.639 287.992 342.639 288.132V293H341.237V285.803H343.425L344.733 291.462L346.032 285.803ZM352.414 290.412C352.326 290.467 352.237 290.513 352.146 290.549C352.058 290.581 351.936 290.612 351.779 290.642L351.467 290.7C351.174 290.752 350.964 290.816 350.837 290.891C350.622 291.018 350.515 291.215 350.515 291.481C350.515 291.719 350.58 291.892 350.71 291.999C350.843 292.103 351.005 292.155 351.193 292.155C351.493 292.155 351.768 292.067 352.019 291.892C352.272 291.716 352.404 291.395 352.414 290.93V290.412ZM351.569 289.763C351.826 289.73 352.01 289.689 352.121 289.641C352.32 289.556 352.419 289.424 352.419 289.245C352.419 289.027 352.342 288.877 352.189 288.796C352.04 288.711 351.818 288.669 351.525 288.669C351.197 288.669 350.964 288.75 350.827 288.913C350.729 289.034 350.664 289.196 350.632 289.401H349.289C349.318 288.936 349.449 288.553 349.68 288.254C350.048 287.785 350.679 287.551 351.574 287.551C352.157 287.551 352.674 287.666 353.127 287.897C353.579 288.129 353.806 288.565 353.806 289.206V291.647C353.806 291.817 353.809 292.022 353.815 292.263C353.825 292.445 353.853 292.569 353.898 292.634C353.944 292.699 354.012 292.753 354.104 292.795V293H352.59C352.548 292.893 352.518 292.792 352.502 292.697C352.486 292.603 352.473 292.495 352.463 292.375C352.271 292.583 352.049 292.761 351.799 292.907C351.499 293.08 351.161 293.166 350.783 293.166C350.301 293.166 349.903 293.029 349.587 292.756C349.274 292.479 349.118 292.089 349.118 291.584C349.118 290.93 349.37 290.456 349.875 290.163C350.152 290.004 350.559 289.89 351.096 289.821L351.569 289.763ZM355.261 294.021L355.437 294.03C355.573 294.037 355.703 294.032 355.827 294.016C355.951 293.999 356.055 293.962 356.14 293.903C356.221 293.848 356.296 293.732 356.364 293.557C356.436 293.381 356.465 293.273 356.452 293.234L354.499 287.678H356.047L357.209 291.604L358.308 287.678H359.787L357.961 292.912C357.609 293.921 357.331 294.546 357.126 294.787C356.921 295.031 356.511 295.153 355.896 295.153C355.772 295.153 355.673 295.152 355.598 295.148C355.523 295.148 355.41 295.144 355.261 295.134V294.021Z" fill="#CBD5E0"/>
<path d="M268.729 290.28H270.556L269.657 287.448L268.729 290.28ZM268.822 285.803H270.521L273.07 293H271.439L270.976 291.521H268.324L267.826 293H266.254L268.822 285.803ZM277.543 290.339C277.543 289.929 277.449 289.566 277.26 289.25C277.074 288.934 276.771 288.776 276.352 288.776C275.847 288.776 275.5 289.016 275.312 289.494C275.214 289.748 275.165 290.07 275.165 290.461C275.165 291.079 275.329 291.514 275.658 291.765C275.854 291.911 276.085 291.984 276.352 291.984C276.739 291.984 277.034 291.835 277.235 291.535C277.44 291.236 277.543 290.837 277.543 290.339ZM276.752 287.561C277.374 287.561 277.899 287.79 278.329 288.249C278.762 288.708 278.979 289.382 278.979 290.271C278.979 291.208 278.767 291.923 278.344 292.414C277.924 292.906 277.382 293.151 276.718 293.151C276.295 293.151 275.943 293.046 275.663 292.834C275.51 292.717 275.36 292.546 275.214 292.321V295.095H273.837V287.678H275.17V288.464C275.32 288.233 275.479 288.05 275.648 287.917C275.958 287.679 276.326 287.561 276.752 287.561ZM282.88 287.551C282.906 287.551 282.927 287.552 282.943 287.556C282.963 287.556 283.004 287.557 283.065 287.561V288.986C282.978 288.977 282.899 288.97 282.831 288.967C282.763 288.964 282.707 288.962 282.665 288.962C282.105 288.962 281.729 289.144 281.537 289.509C281.43 289.714 281.376 290.03 281.376 290.456V293H279.975V287.678H281.303V288.605C281.518 288.251 281.705 288.008 281.864 287.878C282.125 287.66 282.463 287.551 282.88 287.551Z" fill="#CBD5E0"/>
<path d="M196.532 285.803H198.695V293H197.294V288.132C197.294 287.992 197.296 287.797 197.299 287.546C197.302 287.292 197.304 287.097 197.304 286.96L195.941 293H194.481L193.129 286.96C193.129 287.097 193.131 287.292 193.134 287.546C193.137 287.797 193.139 287.992 193.139 288.132V293H191.737V285.803H193.925L195.233 291.462L196.532 285.803ZM202.914 290.412C202.826 290.467 202.737 290.513 202.646 290.549C202.558 290.581 202.436 290.612 202.279 290.642L201.967 290.7C201.674 290.752 201.464 290.816 201.337 290.891C201.122 291.018 201.015 291.215 201.015 291.481C201.015 291.719 201.08 291.892 201.21 291.999C201.343 292.103 201.505 292.155 201.693 292.155C201.993 292.155 202.268 292.067 202.519 291.892C202.772 291.716 202.904 291.395 202.914 290.93V290.412ZM202.069 289.763C202.326 289.73 202.51 289.689 202.621 289.641C202.82 289.556 202.919 289.424 202.919 289.245C202.919 289.027 202.842 288.877 202.689 288.796C202.54 288.711 202.318 288.669 202.025 288.669C201.697 288.669 201.464 288.75 201.327 288.913C201.229 289.034 201.164 289.196 201.132 289.401H199.789C199.818 288.936 199.949 288.553 200.18 288.254C200.548 287.785 201.179 287.551 202.074 287.551C202.657 287.551 203.174 287.666 203.627 287.897C204.079 288.129 204.306 288.565 204.306 289.206V291.647C204.306 291.817 204.309 292.022 204.315 292.263C204.325 292.445 204.353 292.569 204.398 292.634C204.444 292.699 204.512 292.753 204.604 292.795V293H203.09C203.048 292.893 203.018 292.792 203.002 292.697C202.986 292.603 202.973 292.495 202.963 292.375C202.771 292.583 202.549 292.761 202.299 292.907C201.999 293.08 201.661 293.166 201.283 293.166C200.801 293.166 200.403 293.029 200.087 292.756C199.774 292.479 199.618 292.089 199.618 291.584C199.618 290.93 199.87 290.456 200.375 290.163C200.652 290.004 201.059 289.89 201.596 289.821L202.069 289.763ZM208.437 287.551C208.463 287.551 208.484 287.552 208.5 287.556C208.52 287.556 208.56 287.557 208.622 287.561V288.986C208.534 288.977 208.456 288.97 208.388 288.967C208.319 288.964 208.264 288.962 208.222 288.962C207.662 288.962 207.286 289.144 207.094 289.509C206.986 289.714 206.933 290.03 206.933 290.456V293H205.531V287.678H206.859V288.605C207.074 288.251 207.261 288.008 207.421 287.878C207.681 287.66 208.02 287.551 208.437 287.551Z" fill="#CBD5E0"/>
<path d="M116.762 285.812H121.864V287.077H118.256V288.732H121.415V289.982H118.256V293H116.762V285.812ZM124.862 288.684C124.54 288.684 124.289 288.785 124.11 288.986C123.935 289.188 123.824 289.462 123.778 289.807H125.941C125.919 289.439 125.806 289.16 125.604 288.972C125.406 288.78 125.159 288.684 124.862 288.684ZM124.862 287.536C125.305 287.536 125.704 287.619 126.059 287.785C126.413 287.951 126.706 288.213 126.938 288.571C127.146 288.887 127.281 289.253 127.343 289.67C127.379 289.914 127.393 290.266 127.387 290.725H123.744C123.764 291.258 123.931 291.633 124.247 291.848C124.439 291.981 124.67 292.048 124.94 292.048C125.227 292.048 125.46 291.966 125.639 291.804C125.736 291.716 125.823 291.594 125.897 291.438H127.318C127.283 291.753 127.118 292.074 126.825 292.399C126.369 292.917 125.731 293.176 124.911 293.176C124.234 293.176 123.637 292.958 123.119 292.521C122.602 292.085 122.343 291.376 122.343 290.393C122.343 289.471 122.576 288.765 123.041 288.273C123.51 287.782 124.117 287.536 124.862 287.536ZM131.205 287.561C131.905 287.561 132.452 287.813 132.846 288.317C133.243 288.822 133.441 289.473 133.441 290.271C133.441 291.097 133.246 291.783 132.855 292.326C132.465 292.87 131.92 293.142 131.22 293.142C130.78 293.142 130.427 293.054 130.16 292.878C130.001 292.774 129.828 292.591 129.643 292.331V293H128.28V285.812H129.667V288.371C129.843 288.124 130.036 287.935 130.248 287.805C130.499 287.642 130.818 287.561 131.205 287.561ZM130.849 291.994C131.207 291.994 131.485 291.849 131.684 291.56C131.882 291.27 131.981 290.889 131.981 290.417C131.981 290.039 131.933 289.727 131.835 289.479C131.649 289.011 131.308 288.776 130.81 288.776C130.305 288.776 129.958 289.006 129.77 289.465C129.672 289.709 129.623 290.025 129.623 290.412C129.623 290.868 129.724 291.245 129.926 291.545C130.128 291.844 130.435 291.994 130.849 291.994Z" fill="#CBD5E0"/>
<path d="M43.1406 290.271V290.437C43.1536 290.993 43.2139 291.385 43.3213 291.613C43.432 291.838 43.6663 291.95 44.0244 291.95C44.3792 291.95 44.6136 291.826 44.7275 291.579C44.7959 291.433 44.8301 291.185 44.8301 290.837V285.803H46.334V290.812C46.334 291.424 46.2282 291.91 46.0166 292.268C45.6585 292.873 45.0124 293.176 44.0781 293.176C43.1439 293.176 42.5173 292.932 42.1982 292.443C41.8792 291.952 41.7197 291.283 41.7197 290.437V290.271H43.1406ZM50.6504 290.412C50.5625 290.467 50.473 290.513 50.3818 290.549C50.2939 290.581 50.1719 290.612 50.0156 290.642L49.7031 290.7C49.4102 290.752 49.2002 290.816 49.0732 290.891C48.8584 291.018 48.751 291.215 48.751 291.481C48.751 291.719 48.8161 291.892 48.9463 291.999C49.0798 292.103 49.2409 292.155 49.4297 292.155C49.7292 292.155 50.0042 292.067 50.2549 291.892C50.5088 291.716 50.6406 291.395 50.6504 290.93V290.412ZM49.8057 289.763C50.0628 289.73 50.2467 289.689 50.3574 289.641C50.556 289.556 50.6553 289.424 50.6553 289.245C50.6553 289.027 50.5788 288.877 50.4258 288.796C50.276 288.711 50.0547 288.669 49.7617 288.669C49.4329 288.669 49.2002 288.75 49.0635 288.913C48.9658 289.034 48.9007 289.196 48.8682 289.401H47.5254C47.5547 288.936 47.6849 288.553 47.916 288.254C48.2839 287.785 48.9154 287.551 49.8105 287.551C50.3932 287.551 50.9108 287.666 51.3633 287.897C51.8158 288.129 52.042 288.565 52.042 289.206V291.647C52.042 291.817 52.0452 292.022 52.0518 292.263C52.0615 292.445 52.0892 292.569 52.1348 292.634C52.1803 292.699 52.2487 292.753 52.3398 292.795V293H50.8262C50.7839 292.893 50.7546 292.792 50.7383 292.697C50.722 292.603 50.709 292.495 50.6992 292.375C50.5072 292.583 50.2858 292.761 50.0352 292.907C49.7357 293.08 49.3971 293.166 49.0195 293.166C48.5378 293.166 48.139 293.029 47.8232 292.756C47.5107 292.479 47.3545 292.089 47.3545 291.584C47.3545 290.93 47.6068 290.456 48.1113 290.163C48.388 290.004 48.7949 289.89 49.332 289.821L49.8057 289.763ZM56.2314 287.551C56.7816 287.551 57.2308 287.696 57.5791 287.985C57.9307 288.272 58.1064 288.749 58.1064 289.416V293H56.6807V289.763C56.6807 289.483 56.6432 289.268 56.5684 289.118C56.4316 288.845 56.1712 288.708 55.7871 288.708C55.3151 288.708 54.9912 288.908 54.8154 289.309C54.7243 289.52 54.6787 289.79 54.6787 290.119V293H53.292V287.688H54.6348V288.464C54.8138 288.19 54.9831 287.993 55.1426 287.873C55.429 287.658 55.792 287.551 56.2314 287.551Z" fill="#CBD5E0"/>
<path d="M13.2334 258.028C13.2334 258.842 13.3001 259.465 13.4336 259.898C13.5671 260.328 13.8405 260.543 14.2539 260.543C14.6673 260.543 14.9375 260.328 15.0645 259.898C15.1947 259.465 15.2598 258.842 15.2598 258.028C15.2598 257.175 15.1947 256.544 15.0645 256.134C14.9375 255.724 14.6673 255.519 14.2539 255.519C13.8405 255.519 13.5671 255.724 13.4336 256.134C13.3001 256.544 13.2334 257.175 13.2334 258.028ZM14.2539 254.371C15.1556 254.371 15.7871 254.688 16.1484 255.323C16.513 255.958 16.6953 256.86 16.6953 258.028C16.6953 259.197 16.513 260.097 16.1484 260.729C15.7871 261.36 15.1556 261.676 14.2539 261.676C13.3522 261.676 12.7191 261.36 12.3545 260.729C11.9932 260.097 11.8125 259.197 11.8125 258.028C11.8125 256.86 11.9932 255.958 12.3545 255.323C12.7191 254.688 13.3522 254.371 14.2539 254.371Z" fill="#CBD5E0"/>
<path d="M1.19336 206.617V205.67C1.63281 205.65 1.94043 205.621 2.11621 205.582C2.39616 205.52 2.62402 205.396 2.7998 205.211C2.92025 205.084 3.01139 204.915 3.07324 204.703C3.10905 204.576 3.12695 204.482 3.12695 204.42H4.28418V211.5H2.8584V206.617H1.19336ZM7.7998 208.028C7.7998 208.842 7.86654 209.465 8 209.898C8.13346 210.328 8.4069 210.543 8.82031 210.543C9.23372 210.543 9.50391 210.328 9.63086 209.898C9.76107 209.465 9.82617 208.842 9.82617 208.028C9.82617 207.175 9.76107 206.544 9.63086 206.134C9.50391 205.724 9.23372 205.519 8.82031 205.519C8.4069 205.519 8.13346 205.724 8 206.134C7.86654 206.544 7.7998 207.175 7.7998 208.028ZM8.82031 204.371C9.72201 204.371 10.3535 204.688 10.7148 205.323C11.0794 205.958 11.2617 206.86 11.2617 208.028C11.2617 209.197 11.0794 210.097 10.7148 210.729C10.3535 211.36 9.72201 211.676 8.82031 211.676C7.91862 211.676 7.28548 211.36 6.9209 210.729C6.55957 210.097 6.37891 209.197 6.37891 208.028C6.37891 206.86 6.55957 205.958 6.9209 205.323C7.28548 204.688 7.91862 204.371 8.82031 204.371ZM13.3662 208.028C13.3662 208.842 13.4329 209.465 13.5664 209.898C13.6999 210.328 13.9733 210.543 14.3867 210.543C14.8001 210.543 15.0703 210.328 15.1973 209.898C15.3275 209.465 15.3926 208.842 15.3926 208.028C15.3926 207.175 15.3275 206.544 15.1973 206.134C15.0703 205.724 14.8001 205.519 14.3867 205.519C13.9733 205.519 13.6999 205.724 13.5664 206.134C13.4329 206.544 13.3662 207.175 13.3662 208.028ZM14.3867 204.371C15.2884 204.371 15.9199 204.688 16.2812 205.323C16.6458 205.958 16.8281 206.86 16.8281 208.028C16.8281 209.197 16.6458 210.097 16.2812 210.729C15.9199 211.36 15.2884 211.676 14.3867 211.676C13.485 211.676 12.8519 211.36 12.4873 210.729C12.126 210.097 11.9453 209.197 11.9453 208.028C11.9453 206.86 12.126 205.958 12.4873 205.323C12.8519 204.688 13.485 204.371 14.3867 204.371Z" fill="#CBD5E0"/>
<path d="M0.8125 161.5C0.825521 160.992 0.93457 160.528 1.13965 160.108C1.33822 159.636 1.80697 159.137 2.5459 158.609C3.18717 158.15 3.60221 157.822 3.79102 157.623C4.08073 157.314 4.22559 156.975 4.22559 156.607C4.22559 156.308 4.14258 156.059 3.97656 155.86C3.81055 155.662 3.57292 155.562 3.26367 155.562C2.84049 155.562 2.55241 155.72 2.39941 156.036C2.31152 156.218 2.25944 156.508 2.24316 156.905H0.890625C0.913411 156.303 1.02246 155.816 1.21777 155.445C1.58887 154.739 2.24805 154.386 3.19531 154.386C3.94401 154.386 4.53971 154.594 4.98242 155.011C5.42513 155.424 5.64648 155.973 5.64648 156.656C5.64648 157.18 5.49023 157.646 5.17773 158.053C4.97266 158.323 4.63574 158.624 4.16699 158.956L3.61035 159.352C3.26204 159.599 3.02279 159.778 2.89258 159.889C2.76562 159.999 2.6582 160.128 2.57031 160.274H5.66113V161.5H0.8125ZM7.7998 158.028C7.7998 158.842 7.86654 159.465 8 159.898C8.13346 160.328 8.4069 160.543 8.82031 160.543C9.23372 160.543 9.50391 160.328 9.63086 159.898C9.76107 159.465 9.82617 158.842 9.82617 158.028C9.82617 157.175 9.76107 156.544 9.63086 156.134C9.50391 155.724 9.23372 155.519 8.82031 155.519C8.4069 155.519 8.13346 155.724 8 156.134C7.86654 156.544 7.7998 157.175 7.7998 158.028ZM8.82031 154.371C9.72201 154.371 10.3535 154.688 10.7148 155.323C11.0794 155.958 11.2617 156.86 11.2617 158.028C11.2617 159.197 11.0794 160.097 10.7148 160.729C10.3535 161.36 9.72201 161.676 8.82031 161.676C7.91862 161.676 7.28548 161.36 6.9209 160.729C6.55957 160.097 6.37891 159.197 6.37891 158.028C6.37891 156.86 6.55957 155.958 6.9209 155.323C7.28548 154.688 7.91862 154.371 8.82031 154.371ZM13.3662 158.028C13.3662 158.842 13.4329 159.465 13.5664 159.898C13.6999 160.328 13.9733 160.543 14.3867 160.543C14.8001 160.543 15.0703 160.328 15.1973 159.898C15.3275 159.465 15.3926 158.842 15.3926 158.028C15.3926 157.175 15.3275 156.544 15.1973 156.134C15.0703 155.724 14.8001 155.519 14.3867 155.519C13.9733 155.519 13.6999 155.724 13.5664 156.134C13.4329 156.544 13.3662 157.175 13.3662 158.028ZM14.3867 154.371C15.2884 154.371 15.9199 154.688 16.2812 155.323C16.6458 155.958 16.8281 156.86 16.8281 158.028C16.8281 159.197 16.6458 160.097 16.2812 160.729C15.9199 161.36 15.2884 161.676 14.3867 161.676C13.485 161.676 12.8519 161.36 12.4873 160.729C12.126 160.097 11.9453 159.197 11.9453 158.028C11.9453 156.86 12.126 155.958 12.4873 155.323C12.8519 154.688 13.485 154.371 14.3867 154.371Z" fill="#CBD5E0"/>
<path d="M2.13086 109.327C2.13086 109.61 2.17643 109.845 2.26758 110.03C2.43685 110.372 2.74447 110.543 3.19043 110.543C3.46387 110.543 3.7015 110.45 3.90332 110.265C4.1084 110.076 4.21094 109.806 4.21094 109.454C4.21094 108.989 4.02214 108.678 3.64453 108.521C3.42969 108.434 3.09115 108.39 2.62891 108.39V107.394C3.08138 107.387 3.39714 107.343 3.57617 107.262C3.88542 107.125 4.04004 106.848 4.04004 106.432C4.04004 106.161 3.96029 105.942 3.80078 105.772C3.64453 105.603 3.42318 105.519 3.13672 105.519C2.80794 105.519 2.56543 105.623 2.40918 105.831C2.25618 106.039 2.18294 106.318 2.18945 106.666H0.890625C0.903646 106.314 0.963867 105.981 1.07129 105.665C1.18522 105.388 1.36426 105.133 1.6084 104.898C1.79069 104.732 2.00716 104.605 2.25781 104.518C2.50846 104.43 2.81608 104.386 3.18066 104.386C3.85775 104.386 4.40299 104.562 4.81641 104.913C5.23307 105.261 5.44141 105.73 5.44141 106.319C5.44141 106.736 5.31771 107.088 5.07031 107.374C4.91406 107.553 4.7513 107.675 4.58203 107.74C4.70898 107.74 4.89128 107.849 5.12891 108.067C5.48372 108.396 5.66113 108.845 5.66113 109.415C5.66113 110.014 5.4528 110.541 5.03613 110.997C4.62272 111.45 4.00911 111.676 3.19531 111.676C2.19271 111.676 1.49609 111.349 1.10547 110.694C0.900391 110.346 0.786458 109.89 0.763672 109.327H2.13086ZM7.7998 108.028C7.7998 108.842 7.86654 109.465 8 109.898C8.13346 110.328 8.4069 110.543 8.82031 110.543C9.23372 110.543 9.50391 110.328 9.63086 109.898C9.76107 109.465 9.82617 108.842 9.82617 108.028C9.82617 107.175 9.76107 106.544 9.63086 106.134C9.50391 105.724 9.23372 105.519 8.82031 105.519C8.4069 105.519 8.13346 105.724 8 106.134C7.86654 106.544 7.7998 107.175 7.7998 108.028ZM8.82031 104.371C9.72201 104.371 10.3535 104.688 10.7148 105.323C11.0794 105.958 11.2617 106.86 11.2617 108.028C11.2617 109.197 11.0794 110.097 10.7148 110.729C10.3535 111.36 9.72201 111.676 8.82031 111.676C7.91862 111.676 7.28548 111.36 6.9209 110.729C6.55957 110.097 6.37891 109.197 6.37891 108.028C6.37891 106.86 6.55957 105.958 6.9209 105.323C7.28548 104.688 7.91862 104.371 8.82031 104.371ZM13.3662 108.028C13.3662 108.842 13.4329 109.465 13.5664 109.898C13.6999 110.328 13.9733 110.543 14.3867 110.543C14.8001 110.543 15.0703 110.328 15.1973 109.898C15.3275 109.465 15.3926 108.842 15.3926 108.028C15.3926 107.175 15.3275 106.544 15.1973 106.134C15.0703 105.724 14.8001 105.519 14.3867 105.519C13.9733 105.519 13.6999 105.724 13.5664 106.134C13.4329 106.544 13.3662 107.175 13.3662 108.028ZM14.3867 104.371C15.2884 104.371 15.9199 104.688 16.2812 105.323C16.6458 105.958 16.8281 106.86 16.8281 108.028C16.8281 109.197 16.6458 110.097 16.2812 110.729C15.9199 111.36 15.2884 111.676 14.3867 111.676C13.485 111.676 12.8519 111.36 12.4873 110.729C12.126 110.097 11.9453 109.197 11.9453 108.028C11.9453 106.86 12.126 105.958 12.4873 105.323C12.8519 104.688 13.485 104.371 14.3867 104.371Z" fill="#CBD5E0"/>
<path d="M5.72949 59.9766H4.92871V61.5H3.56641V59.9766H0.763672V58.7607L3.36621 54.4639H4.92871V58.8877H5.72949V59.9766ZM3.56641 58.8877V55.8311L1.79395 58.8877H3.56641ZM7.7998 58.0283C7.7998 58.8421 7.86654 59.4655 8 59.8984C8.13346 60.3281 8.4069 60.543 8.82031 60.543C9.23372 60.543 9.50391 60.3281 9.63086 59.8984C9.76107 59.4655 9.82617 58.8421 9.82617 58.0283C9.82617 57.1755 9.76107 56.5439 9.63086 56.1338C9.50391 55.7236 9.23372 55.5186 8.82031 55.5186C8.4069 55.5186 8.13346 55.7236 8 56.1338C7.86654 56.5439 7.7998 57.1755 7.7998 58.0283ZM8.82031 54.3711C9.72201 54.3711 10.3535 54.6885 10.7148 55.3232C11.0794 55.958 11.2617 56.8597 11.2617 58.0283C11.2617 59.1969 11.0794 60.097 10.7148 60.7285C10.3535 61.36 9.72201 61.6758 8.82031 61.6758C7.91862 61.6758 7.28548 61.36 6.9209 60.7285C6.55957 60.097 6.37891 59.1969 6.37891 58.0283C6.37891 56.8597 6.55957 55.958 6.9209 55.3232C7.28548 54.6885 7.91862 54.3711 8.82031 54.3711ZM13.3662 58.0283C13.3662 58.8421 13.4329 59.4655 13.5664 59.8984C13.6999 60.3281 13.9733 60.543 14.3867 60.543C14.8001 60.543 15.0703 60.3281 15.1973 59.8984C15.3275 59.4655 15.3926 58.8421 15.3926 58.0283C15.3926 57.1755 15.3275 56.5439 15.1973 56.1338C15.0703 55.7236 14.8001 55.5186 14.3867 55.5186C13.9733 55.5186 13.6999 55.7236 13.5664 56.1338C13.4329 56.5439 13.3662 57.1755 13.3662 58.0283ZM14.3867 54.3711C15.2884 54.3711 15.9199 54.6885 16.2812 55.3232C16.6458 55.958 16.8281 56.8597 16.8281 58.0283C16.8281 59.1969 16.6458 60.097 16.2812 60.7285C15.9199 61.36 15.2884 61.6758 14.3867 61.6758C13.485 61.6758 12.8519 61.36 12.4873 60.7285C12.126 60.097 11.9453 59.1969 11.9453 58.0283C11.9453 56.8597 12.126 55.958 12.4873 55.3232C12.8519 54.6885 13.485 54.3711 14.3867 54.3711Z" fill="#CBD5E0"/>
<path d="M2.15039 9.60547C2.20573 9.9082 2.31152 10.1426 2.46777 10.3086C2.62402 10.4714 2.85189 10.5527 3.15137 10.5527C3.49642 10.5527 3.75846 10.4323 3.9375 10.1914C4.11979 9.94727 4.21094 9.64128 4.21094 9.27344C4.21094 8.91211 4.1263 8.60775 3.95703 8.36035C3.78776 8.1097 3.52409 7.98438 3.16602 7.98438C2.99674 7.98438 2.85026 8.00553 2.72656 8.04785C2.50846 8.12598 2.34408 8.27083 2.2334 8.48242L0.983398 8.42383L1.48145 4.5127H5.38281V5.69434H2.4873L2.2334 7.24219C2.44824 7.10221 2.61589 7.00944 2.73633 6.96387C2.93815 6.889 3.18392 6.85156 3.47363 6.85156C4.05957 6.85156 4.57064 7.0485 5.00684 7.44238C5.44303 7.83626 5.66113 8.40918 5.66113 9.16113C5.66113 9.81543 5.45117 10.3997 5.03125 10.9141C4.61133 11.4284 3.98307 11.6855 3.14648 11.6855C2.47266 11.6855 1.91927 11.5049 1.48633 11.1436C1.05339 10.7822 0.8125 10.2695 0.763672 9.60547H2.15039ZM7.7998 8.02832C7.7998 8.84212 7.86654 9.46549 8 9.89844C8.13346 10.3281 8.4069 10.543 8.82031 10.543C9.23372 10.543 9.50391 10.3281 9.63086 9.89844C9.76107 9.46549 9.82617 8.84212 9.82617 8.02832C9.82617 7.17546 9.76107 6.54395 9.63086 6.13379C9.50391 5.72363 9.23372 5.51855 8.82031 5.51855C8.4069 5.51855 8.13346 5.72363 8 6.13379C7.86654 6.54395 7.7998 7.17546 7.7998 8.02832ZM8.82031 4.37109C9.72201 4.37109 10.3535 4.68848 10.7148 5.32324C11.0794 5.95801 11.2617 6.8597 11.2617 8.02832C11.2617 9.19694 11.0794 10.097 10.7148 10.7285C10.3535 11.36 9.72201 11.6758 8.82031 11.6758C7.91862 11.6758 7.28548 11.36 6.9209 10.7285C6.55957 10.097 6.37891 9.19694 6.37891 8.02832C6.37891 6.8597 6.55957 5.95801 6.9209 5.32324C7.28548 4.68848 7.91862 4.37109 8.82031 4.37109ZM13.3662 8.02832C13.3662 8.84212 13.4329 9.46549 13.5664 9.89844C13.6999 10.3281 13.9733 10.543 14.3867 10.543C14.8001 10.543 15.0703 10.3281 15.1973 9.89844C15.3275 9.46549 15.3926 8.84212 15.3926 8.02832C15.3926 7.17546 15.3275 6.54395 15.1973 6.13379C15.0703 5.72363 14.8001 5.51855 14.3867 5.51855C13.9733 5.51855 13.6999 5.72363 13.5664 6.13379C13.4329 6.54395 13.3662 7.17546 13.3662 8.02832ZM14.3867 4.37109C15.2884 4.37109 15.9199 4.68848 16.2812 5.32324C16.6458 5.95801 16.8281 6.8597 16.8281 8.02832C16.8281 9.19694 16.6458 10.097 16.2812 10.7285C15.9199 11.36 15.2884 11.6758 14.3867 11.6758C13.485 11.6758 12.8519 11.36 12.4873 10.7285C12.126 10.097 11.9453 9.19694 11.9453 8.02832C11.9453 6.8597 12.126 5.95801 12.4873 5.32324C12.8519 4.68848 13.485 4.37109 14.3867 4.37109Z" fill="#CBD5E0"/>
<line x1="42" y1="257.5" x2="881" y2="257.5" stroke="#E2E8F0" stroke-linecap="round" stroke-linejoin="round" stroke-dasharray="3.5 3.5"/>
<line x1="42" y1="207.5" x2="881" y2="207.5" stroke="#E2E8F0" stroke-linecap="round" stroke-linejoin="round" stroke-dasharray="3.5 3.5"/>
<line x1="42" y1="157.5" x2="881" y2="157.5" stroke="#E2E8F0" stroke-linecap="round" stroke-linejoin="round" stroke-dasharray="3.5 3.5"/>
<line x1="42" y1="107.5" x2="881" y2="107.5" stroke="#E2E8F0" stroke-linecap="round" stroke-linejoin="round" stroke-dasharray="3.5 3.5"/>
<line x1="42" y1="57.5" x2="881" y2="57.5001" stroke="#E2E8F0" stroke-linecap="round" stroke-linejoin="round" stroke-dasharray="3.5 3.5"/>
<line x1="42" y1="7.5" x2="881" y2="7.50007" stroke="#E2E8F0" stroke-linecap="round" stroke-linejoin="round" stroke-dasharray="3.5 3.5"/>
<path d="M766.703 177.545C810.311 164.448 861.404 183.003 881.5 193.917V257.75H41.5V8C83.7009 15.4922 110.83 77.0946 117.612 116.22C123.144 148.132 123.39 170.886 152.78 177.545C182.327 184.24 217.359 162.936 247 134.077C270.713 110.99 306.115 124.457 320.852 134.077C346.976 150.819 390.01 162.172 424.574 145.079C467.78 123.713 491.644 129.817 546.153 145.079C600.663 160.341 595.136 170.053 640.603 193.917C686.069 217.781 712.194 193.917 766.703 177.545Z" fill="url(#paint0_linear_635_903)"/>
<path d="M881.5 193.917C861.404 183.003 810.311 164.448 766.703 177.545C712.194 193.917 686.069 217.781 640.603 193.917C595.136 170.053 600.663 160.341 546.153 145.079C491.644 129.817 467.78 123.713 424.574 145.079C390.01 162.172 346.976 150.819 320.852 134.077C306.115 124.457 270.713 110.99 247 134.077C217.359 162.936 182.327 184.24 152.78 177.545C123.39 170.886 123.144 148.132 117.612 116.22C110.83 77.0946 83.701 15.4922 41.5 8" stroke="#2D3748" stroke-width="3"/>
<path d="M155.414 150.457C112.142 137.369 61.4412 155.91 41.5 166.817V257.5H880.5V42.9074C838.623 50.3941 803.05 48.4526 796.32 87.5498C790.831 119.438 790.587 142.175 761.423 148.83C732.103 155.52 715.059 116.387 685.646 87.5498C662.115 64.4798 622.486 94.5 607.862 104.113C581.939 120.842 523.007 84.3408 497.467 55.648C461 14.6781 413.043 10.9308 376.823 55.648C340.604 100.365 304.678 63.7034 259.561 87.5498C214.444 111.396 209.505 166.817 155.414 150.457Z" fill="url(#paint1_linear_635_903)"/>
<path d="M41.5 167C61.4412 156.079 112.142 137.515 155.414 150.619C209.505 167 214.444 111.509 259.561 87.6318C304.678 63.7548 340.604 100.464 376.823 55.6892C413.043 10.9147 461 14.6668 497.467 55.6892C523.007 84.4187 581.939 120.967 607.862 104.216C622.486 94.5909 662.115 64.5322 685.646 87.6318C715.059 116.506 732.103 155.689 761.423 148.99C790.587 142.327 790.831 119.56 796.32 87.6318C803.05 48.4846 838.623 50.4285 880.5 42.9323" stroke="#4FD1C5" stroke-width="3"/>
<defs>
<linearGradient id="paint0_linear_635_903" x1="461.5" y1="8" x2="461.5" y2="257.75" gradientUnits="userSpaceOnUse">
<stop stop-color="#2D3748" stop-opacity="0.36"/>
<stop offset="1" stop-color="#2D3748" stop-opacity="0"/>
</linearGradient>
<linearGradient id="paint1_linear_635_903" x1="461" y1="23.5" x2="461" y2="257.5" gradientUnits="userSpaceOnUse">
<stop stop-color="#4FD1C5" stop-opacity="0.54"/>
<stop offset="1" stop-color="#4FD1C5" stop-opacity="0"/>
</linearGradient>
</defs>
</svg>
