<svg width="20" height="20" viewBox="0 0 20 20" fill="none" xmlns="http://www.w3.org/2000/svg">
<g clip-path="url(#clip0_793_2879)">
<path d="M3.54142 0.5H16.4581C18.4164 0.5 19.9998 2.08333 19.9998 4.04167V16.4583C19.9998 18.4167 18.4164 20 16.4581 20H3.54142C1.58309 20 -0.000244141 18.4167 -0.000244141 16.4583V4.04167C-0.000244141 2.08333 1.58309 0.5 3.54142 0.5Z" fill="#470137"/>
<path d="M10.5164 5.625L8.01642 9.75L10.6831 14.125C10.6997 14.1583 10.7081 14.1917 10.6997 14.225C10.6914 14.2583 10.6581 14.2333 10.6081 14.2417H8.69975C8.56642 14.2417 8.47475 14.2333 8.41642 14.15C8.24142 13.8 8.05808 13.4583 7.88308 13.1083C7.70808 12.7667 7.51642 12.4167 7.31642 12.0583C7.11642 11.7 6.91642 11.3417 6.71642 10.975H6.69975C6.52475 11.3333 6.33308 11.6917 6.14142 12.05C5.94975 12.4083 5.75808 12.7667 5.57475 13.1167C5.38308 13.4667 5.19142 13.825 4.99975 14.1667C4.96642 14.25 4.89975 14.2583 4.80808 14.2583H2.97475C2.94142 14.2583 2.91642 14.275 2.91642 14.2333C2.90808 14.2 2.91642 14.1667 2.93308 14.1417L5.52475 9.89167L2.99975 5.61667C2.97475 5.58333 2.96642 5.55 2.98308 5.53333C2.99975 5.50833 3.03308 5.5 3.06642 5.5H4.95808C4.99975 5.5 5.04142 5.50833 5.07475 5.51667C5.10808 5.53333 5.13308 5.55833 5.15808 5.59167C5.31642 5.95 5.49975 6.30833 5.69142 6.66667C5.89142 7.025 6.08308 7.375 6.29142 7.725C6.49142 8.075 6.67475 8.425 6.84975 8.78333H6.86642C7.04142 8.41667 7.22475 8.05833 7.40808 7.70833C7.59142 7.35833 7.78308 7.00833 7.97475 6.65833C8.16642 6.30833 8.34975 5.95 8.53308 5.60833C8.54142 5.575 8.55808 5.54167 8.58308 5.525C8.61642 5.50833 8.64975 5.5 8.69142 5.50833H10.4497C10.4914 5.5 10.5331 5.525 10.5414 5.56667C10.5497 5.575 10.5331 5.60833 10.5164 5.625Z" fill="#FF61F6"/>
<path d="M14.3664 14.4166C13.7497 14.425 13.133 14.3 12.5747 14.0416C12.0497 13.8 11.6164 13.4 11.3164 12.9083C11.008 12.4 10.858 11.7666 10.858 11.0083C10.8497 10.3916 11.008 9.78331 11.3164 9.24998C11.633 8.70831 12.0914 8.25831 12.6414 7.95831C13.2247 7.63331 13.9247 7.47498 14.7497 7.47498C14.7914 7.47498 14.8497 7.47498 14.9247 7.48331C14.9997 7.49164 15.083 7.49164 15.183 7.49998V4.86664C15.183 4.80831 15.208 4.77498 15.2664 4.77498H16.958C16.9997 4.76664 17.033 4.79998 17.0414 4.83331C17.0414 4.84164 17.0414 4.84998 17.0414 4.84998V12.7833C17.0414 12.9333 17.0497 13.1 17.058 13.2833C17.0747 13.4583 17.083 13.625 17.0914 13.7666C17.0914 13.825 17.0664 13.875 17.008 13.9C16.5747 14.0833 16.1164 14.2166 15.6497 14.3C15.2247 14.375 14.7997 14.4166 14.3664 14.4166ZM15.183 12.75V9.08331C15.108 9.06664 15.033 9.04998 14.958 9.04164C14.8664 9.03331 14.7747 9.02498 14.683 9.02498C14.358 9.02498 14.033 9.09164 13.7414 9.24164C13.458 9.38331 13.2164 9.59164 13.033 9.85831C12.8497 10.125 12.758 10.4833 12.758 10.9166C12.7497 11.2083 12.7997 11.5 12.8997 11.775C12.983 12 13.108 12.2 13.2747 12.3666C13.433 12.5166 13.6247 12.6333 13.8414 12.7C14.0664 12.775 14.2997 12.8083 14.533 12.8083C14.658 12.8083 14.7747 12.8 14.883 12.7916C14.9914 12.8 15.083 12.7833 15.183 12.75Z" fill="#FF61F6"/>
</g>
<defs>
<clipPath id="clip0_793_2879">
<rect width="20" height="19.5" fill="white" transform="translate(-0.000244141 0.5)"/>
</clipPath>
</defs>
</svg>
