<svg width="16" height="17" viewBox="0 0 16 17" fill="none" xmlns="http://www.w3.org/2000/svg">
<path d="M5.49963 14.4999C6.05192 14.4999 6.49963 14.0522 6.49963 13.4999C6.49963 12.9477 6.05192 12.4999 5.49963 12.4999C4.94735 12.4999 4.49963 12.9477 4.49963 13.4999C4.49963 14.0522 4.94735 14.4999 5.49963 14.4999Z" fill="#4299E1"/>
<path d="M12.4997 14.4999C13.052 14.4999 13.4997 14.0522 13.4997 13.4999C13.4997 12.9477 13.052 12.4999 12.4997 12.4999C11.9474 12.4999 11.4997 12.9477 11.4997 13.4999C11.4997 14.0522 11.9474 14.4999 12.4997 14.4999Z" fill="#4299E1"/>
<path d="M14.2747 4.27454C14.2044 4.18862 14.116 4.11942 14.0156 4.07196C13.9153 4.0245 13.8057 3.99998 13.6947 4.00017H4.18376L3.99219 2.91329C3.97177 2.79752 3.9112 2.69265 3.82113 2.6171C3.73106 2.54154 3.61725 2.50014 3.49969 2.50017H1.49969C1.36709 2.50017 1.23991 2.55285 1.14614 2.64661C1.05237 2.74038 0.999695 2.86756 0.999695 3.00017C0.999695 3.13278 1.05237 3.25995 1.14614 3.35372C1.23991 3.44749 1.36709 3.50017 1.49969 3.50017H3.08032L4.50719 11.587C4.52762 11.7028 4.58819 11.8077 4.67826 11.8832C4.76832 11.9588 4.88213 12.0002 4.99969 12.0002H12.9997C13.1323 12.0002 13.2595 11.9475 13.3532 11.8537C13.447 11.76 13.4997 11.6328 13.4997 11.5002C13.4997 11.3676 13.447 11.2404 13.3532 11.1466C13.2595 11.0528 13.1323 11.0002 12.9997 11.0002H5.41907L5.24282 10.0002H12.7947C12.9681 9.99995 13.1361 9.93982 13.2703 9.82997C13.4044 9.72013 13.4965 9.5673 13.5309 9.39735L14.4309 4.89735C14.4526 4.78845 14.4499 4.67609 14.4228 4.56838C14.3958 4.46068 14.3452 4.36031 14.2747 4.27454Z" fill="#4299E1"/>
</svg>
